<svg width="148" height="54" viewBox="0 0 148 54" fill="none" xmlns="http://www.w3.org/2000/svg">
<rect width="148" height="54" rx="27" fill="white"/>
<rect x="0.5" y="0.5" width="147" height="53" rx="26.5" stroke="black" stroke-opacity="0.08"/>
<rect width="24" height="24" transform="translate(15 15)" fill="white"/>
<path fill-rule="evenodd" clip-rule="evenodd" d="M38.04 27.2614C38.04 26.4459 37.9668 25.6618 37.8309 24.9091H27V29.3575H33.1891C32.9225 30.795 32.1123 32.013 30.8943 32.8284V35.7139H34.6109C36.7855 33.7118 38.04 30.7636 38.04 27.2614Z" fill="#4285F4"/>
<path fill-rule="evenodd" clip-rule="evenodd" d="M27 38.4998C30.105 38.4998 32.7081 37.4701 34.6109 35.7137L30.8943 32.8282C29.8645 33.5182 28.5472 33.926 27 33.926C24.0047 33.926 21.4695 31.903 20.5652 29.1848H16.7231V32.1644C18.6154 35.9228 22.5045 38.4998 27 38.4998Z" fill="#34A853"/>
<path fill-rule="evenodd" clip-rule="evenodd" d="M20.5652 29.1851C20.3352 28.4951 20.2045 27.758 20.2045 27.0001C20.2045 26.2421 20.3352 25.5051 20.5652 24.8151V21.8355H16.7232C15.9443 23.388 15.5 25.1444 15.5 27.0001C15.5 28.8557 15.9443 30.6121 16.7232 32.1646L20.5652 29.1851Z" fill="#FBBC05"/>
<path fill-rule="evenodd" clip-rule="evenodd" d="M27 20.0739C28.6884 20.0739 30.2043 20.6541 31.3961 21.7936L34.6945 18.4952C32.7029 16.6395 30.0997 15.5 27 15.5C22.5045 15.5 18.6154 18.077 16.7231 21.8355L20.5652 24.815C21.4695 22.0968 24.0047 20.0739 27 20.0739Z" fill="#EA4335"/>
<path d="M66.3633 25.7344V31.1641C66.1615 31.431 65.8457 31.724 65.416 32.043C64.9928 32.3555 64.4297 32.6257 63.7266 32.8535C63.0234 33.0814 62.1478 33.1953 61.0996 33.1953C60.2077 33.1953 59.3906 33.0456 58.6484 32.7461C57.9062 32.4401 57.265 31.9941 56.7246 31.4082C56.1908 30.8223 55.7773 30.1094 55.4844 29.2695C55.1914 28.4232 55.0449 27.4596 55.0449 26.3789V25.3926C55.0449 24.3184 55.1784 23.3613 55.4453 22.5215C55.7188 21.6751 56.1094 20.959 56.6172 20.373C57.125 19.7871 57.737 19.3444 58.4531 19.0449C59.1758 18.7389 59.9928 18.5859 60.9043 18.5859C62.0697 18.5859 63.0332 18.7812 63.7949 19.1719C64.5632 19.556 65.1556 20.0898 65.5723 20.7734C65.9889 21.457 66.2526 22.2383 66.3633 23.1172H63.9609C63.8828 22.6224 63.7298 22.1797 63.502 21.7891C63.2806 21.3984 62.9616 21.0924 62.5449 20.8711C62.1348 20.6432 61.6009 20.5293 60.9434 20.5293C60.377 20.5293 59.8789 20.6367 59.4492 20.8516C59.0195 21.0664 58.6615 21.3822 58.375 21.7988C58.0951 22.2155 57.8835 22.7233 57.7402 23.3223C57.597 23.9212 57.5254 24.6048 57.5254 25.373V26.3789C57.5254 27.1602 57.6068 27.8535 57.7695 28.459C57.9388 29.0645 58.1797 29.5755 58.4922 29.9922C58.8112 30.4089 59.1986 30.7246 59.6543 30.9395C60.11 31.1478 60.6243 31.252 61.1973 31.252C61.7572 31.252 62.2161 31.2064 62.5742 31.1152C62.9323 31.0176 63.2155 30.9036 63.4238 30.7734C63.6387 30.6367 63.8047 30.5065 63.9219 30.3828V27.5605H60.9629V25.7344H66.3633ZM68.3945 27.834V27.6094C68.3945 26.8477 68.5052 26.1413 68.7266 25.4902C68.9479 24.8327 69.2669 24.263 69.6836 23.7812C70.1068 23.293 70.6211 22.9154 71.2266 22.6484C71.8385 22.375 72.5286 22.2383 73.2969 22.2383C74.0716 22.2383 74.7617 22.375 75.3672 22.6484C75.9792 22.9154 76.4967 23.293 76.9199 23.7812C77.3431 24.263 77.6654 24.8327 77.8867 25.4902C78.1081 26.1413 78.2188 26.8477 78.2188 27.6094V27.834C78.2188 28.5957 78.1081 29.3021 77.8867 29.9531C77.6654 30.6042 77.3431 31.1738 76.9199 31.6621C76.4967 32.1439 75.9824 32.5215 75.377 32.7949C74.7715 33.0618 74.0846 33.1953 73.3164 33.1953C72.5417 33.1953 71.8483 33.0618 71.2363 32.7949C70.6309 32.5215 70.1165 32.1439 69.6934 31.6621C69.2702 31.1738 68.9479 30.6042 68.7266 29.9531C68.5052 29.3021 68.3945 28.5957 68.3945 27.834ZM70.748 27.6094V27.834C70.748 28.3092 70.7969 28.7585 70.8945 29.1816C70.9922 29.6048 71.1452 29.9759 71.3535 30.2949C71.5618 30.6139 71.8288 30.8646 72.1543 31.0469C72.4798 31.2292 72.8672 31.3203 73.3164 31.3203C73.7526 31.3203 74.1302 31.2292 74.4492 31.0469C74.7747 30.8646 75.0417 30.6139 75.25 30.2949C75.4583 29.9759 75.6113 29.6048 75.709 29.1816C75.8132 28.7585 75.8652 28.3092 75.8652 27.834V27.6094C75.8652 27.1406 75.8132 26.6979 75.709 26.2812C75.6113 25.8581 75.4551 25.4837 75.2402 25.1582C75.0319 24.8327 74.765 24.5788 74.4395 24.3965C74.1204 24.2077 73.7396 24.1133 73.2969 24.1133C72.8542 24.1133 72.4701 24.2077 72.1445 24.3965C71.8255 24.5788 71.5618 24.8327 71.3535 25.1582C71.1452 25.4837 70.9922 25.8581 70.8945 26.2812C70.7969 26.6979 70.748 27.1406 70.748 27.6094ZM79.7422 27.834V27.6094C79.7422 26.8477 79.8529 26.1413 80.0742 25.4902C80.2956 24.8327 80.6146 24.263 81.0312 23.7812C81.4544 23.293 81.9688 22.9154 82.5742 22.6484C83.1862 22.375 83.8763 22.2383 84.6445 22.2383C85.4193 22.2383 86.1094 22.375 86.7148 22.6484C87.3268 22.9154 87.8444 23.293 88.2676 23.7812C88.6908 24.263 89.013 24.8327 89.2344 25.4902C89.4557 26.1413 89.5664 26.8477 89.5664 27.6094V27.834C89.5664 28.5957 89.4557 29.3021 89.2344 29.9531C89.013 30.6042 88.6908 31.1738 88.2676 31.6621C87.8444 32.1439 87.3301 32.5215 86.7246 32.7949C86.1191 33.0618 85.4323 33.1953 84.6641 33.1953C83.8893 33.1953 83.196 33.0618 82.584 32.7949C81.9785 32.5215 81.4642 32.1439 81.041 31.6621C80.6178 31.1738 80.2956 30.6042 80.0742 29.9531C79.8529 29.3021 79.7422 28.5957 79.7422 27.834ZM82.0957 27.6094V27.834C82.0957 28.3092 82.1445 28.7585 82.2422 29.1816C82.3398 29.6048 82.4928 29.9759 82.7012 30.2949C82.9095 30.6139 83.1764 30.8646 83.502 31.0469C83.8275 31.2292 84.2148 31.3203 84.6641 31.3203C85.1003 31.3203 85.4779 31.2292 85.7969 31.0469C86.1224 30.8646 86.3893 30.6139 86.5977 30.2949C86.806 29.9759 86.959 29.6048 87.0566 29.1816C87.1608 28.7585 87.2129 28.3092 87.2129 27.834V27.6094C87.2129 27.1406 87.1608 26.6979 87.0566 26.2812C86.959 25.8581 86.8027 25.4837 86.5879 25.1582C86.3796 24.8327 86.1126 24.5788 85.7871 24.3965C85.4681 24.2077 85.0872 24.1133 84.6445 24.1133C84.2018 24.1133 83.8177 24.2077 83.4922 24.3965C83.1732 24.5788 82.9095 24.8327 82.7012 25.1582C82.4928 25.4837 82.3398 25.8581 82.2422 26.2812C82.1445 26.6979 82.0957 27.1406 82.0957 27.6094ZM98.3066 22.4336H100.445V32.707C100.445 33.6576 100.243 34.4648 99.8398 35.1289C99.4362 35.793 98.873 36.2975 98.1504 36.6426C97.4277 36.9941 96.5911 37.1699 95.6406 37.1699C95.237 37.1699 94.7878 37.1113 94.293 36.9941C93.8047 36.877 93.3294 36.6882 92.8672 36.4277C92.4115 36.1738 92.0306 35.8385 91.7246 35.4219L92.8281 34.0352C93.2057 34.4844 93.6224 34.8132 94.0781 35.0215C94.5339 35.2298 95.0124 35.334 95.5137 35.334C96.054 35.334 96.513 35.2331 96.8906 35.0312C97.2747 34.8359 97.571 34.5462 97.7793 34.1621C97.9876 33.778 98.0918 33.3092 98.0918 32.7559V24.8262L98.3066 22.4336ZM91.1289 27.834V27.6289C91.1289 26.8281 91.2266 26.099 91.4219 25.4414C91.6172 24.7773 91.8971 24.2077 92.2617 23.7324C92.6263 23.2507 93.069 22.8828 93.5898 22.6289C94.1107 22.3685 94.6999 22.2383 95.3574 22.2383C96.041 22.2383 96.6237 22.362 97.1055 22.6094C97.5938 22.8568 98.0007 23.2116 98.3262 23.6738C98.6517 24.1296 98.9056 24.6764 99.0879 25.3145C99.2767 25.946 99.4167 26.6491 99.5078 27.4238V28.0781C99.4232 28.8333 99.2799 29.5234 99.0781 30.1484C98.8763 30.7734 98.6094 31.3138 98.2773 31.7695C97.9453 32.2253 97.5352 32.5768 97.0469 32.8242C96.5651 33.0716 95.9954 33.1953 95.3379 33.1953C94.6934 33.1953 94.1107 33.0618 93.5898 32.7949C93.0755 32.528 92.6328 32.1536 92.2617 31.6719C91.8971 31.1901 91.6172 30.6237 91.4219 29.9727C91.2266 29.3151 91.1289 28.6022 91.1289 27.834ZM93.4824 27.6289V27.834C93.4824 28.3158 93.528 28.765 93.6191 29.1816C93.7168 29.5983 93.8633 29.9661 94.0586 30.2852C94.2604 30.5977 94.5143 30.8451 94.8203 31.0273C95.1328 31.2031 95.5007 31.291 95.9238 31.291C96.4772 31.291 96.9297 31.1738 97.2812 30.9395C97.6393 30.7051 97.9128 30.3893 98.1016 29.9922C98.2969 29.5885 98.4336 29.1393 98.5117 28.6445V26.877C98.4727 26.4928 98.3913 26.1348 98.2676 25.8027C98.1504 25.4707 97.9909 25.181 97.7891 24.9336C97.5872 24.6797 97.3333 24.4844 97.0273 24.3477C96.7214 24.2044 96.36 24.1328 95.9434 24.1328C95.5202 24.1328 95.1523 24.224 94.8398 24.4062C94.5273 24.5885 94.2702 24.8392 94.0684 25.1582C93.873 25.4772 93.7266 25.8483 93.6289 26.2715C93.5312 26.6947 93.4824 27.1471 93.4824 27.6289ZM105.406 18V33H103.043V18H105.406ZM112.643 33.1953C111.861 33.1953 111.155 33.0684 110.523 32.8145C109.898 32.554 109.365 32.1927 108.922 31.7305C108.486 31.2682 108.15 30.7246 107.916 30.0996C107.682 29.4746 107.564 28.8008 107.564 28.0781V27.6875C107.564 26.8607 107.685 26.112 107.926 25.4414C108.167 24.7708 108.502 24.1979 108.932 23.7227C109.361 23.2409 109.869 22.873 110.455 22.6191C111.041 22.3652 111.676 22.2383 112.359 22.2383C113.115 22.2383 113.775 22.3652 114.342 22.6191C114.908 22.873 115.377 23.2311 115.748 23.6934C116.126 24.1491 116.406 24.6927 116.588 25.3242C116.777 25.9557 116.871 26.6523 116.871 27.4141V28.4199H108.707V26.7305H114.547V26.5449C114.534 26.1217 114.449 25.7246 114.293 25.3535C114.143 24.9824 113.912 24.6829 113.6 24.4551C113.287 24.2272 112.87 24.1133 112.35 24.1133C111.959 24.1133 111.611 24.1979 111.305 24.3672C111.005 24.5299 110.755 24.7676 110.553 25.0801C110.351 25.3926 110.195 25.7702 110.084 26.2129C109.98 26.6491 109.928 27.1406 109.928 27.6875V28.0781C109.928 28.5404 109.99 28.9701 110.113 29.3672C110.243 29.7578 110.432 30.0996 110.68 30.3926C110.927 30.6855 111.227 30.9167 111.578 31.0859C111.93 31.2487 112.33 31.3301 112.779 31.3301C113.346 31.3301 113.85 31.2161 114.293 30.9883C114.736 30.7604 115.12 30.4382 115.445 30.0215L116.686 31.2227C116.458 31.5547 116.161 31.8737 115.797 32.1797C115.432 32.4792 114.986 32.7233 114.459 32.9121C113.938 33.1009 113.333 33.1953 112.643 33.1953Z" fill="black" fill-opacity="0.54"/>
</svg>
