<svg width="148" height="54" viewBox="0 0 148 54" fill="none" xmlns="http://www.w3.org/2000/svg">
<rect width="148" height="54" rx="27" fill="white"/>
<rect x="0.5" y="0.5" width="147" height="53" rx="26.5" stroke="black" stroke-opacity="0.08"/>
<path d="M29.4756 25.4785V20.9038V20.6534H29.7271L37.5804 20.6536V20.6526C37.8061 20.6526 38.1153 20.808 38.3351 21.0665C38.507 21.2687 38.633 21.5371 38.633 21.8465V21.9798L38.5221 22.0546L31.6418 26.6934L31.5769 26.7248C31.531 26.7393 31.4709 26.7462 31.4156 26.7462C31.3621 26.7462 31.3018 26.7391 31.256 26.7258L31.1921 26.6973L29.5935 25.6906L29.4756 25.6164V25.4785Z" fill="#0072C6"/>
<path d="M29.8684 26.337L31.3275 27.3392L31.3343 27.3441C31.3971 27.3902 31.4899 27.3426 31.5083 27.3323L38.2442 22.8451L38.6341 22.5854V23.0543V31.4622C38.6341 31.9581 38.48 32.327 38.2348 32.5829C37.9514 32.8786 37.555 33.0127 37.1378 33.0127H29.726H29.4746L29.4747 32.7612V26.5442V26.2928H29.726H29.727L29.8684 26.337Z" fill="#0072C6"/>
<path d="M22.1812 24.1409C21.9294 24.1409 21.7055 24.1987 21.5101 24.3141C21.308 24.4333 21.1297 24.6159 20.9754 24.8616L20.9748 24.8614C20.8136 25.119 20.6911 25.4238 20.6078 25.7754C20.5229 26.1336 20.4805 26.5387 20.4805 26.9905C20.4805 27.4493 20.5229 27.8575 20.6078 28.2152C20.6904 28.5632 20.8126 28.8624 20.9742 29.1128C21.1285 29.3524 21.3035 29.5296 21.499 29.645C21.6871 29.7559 21.8999 29.8113 22.1377 29.8113V29.8125C22.3855 29.8125 22.6061 29.7576 22.7992 29.6478C22.9956 29.5362 23.1686 29.3652 23.3183 29.1348C23.4754 28.8927 23.5945 28.5992 23.6754 28.2543C23.7585 27.8998 23.8001 27.4917 23.8001 27.0302C23.8001 26.5467 23.7597 26.1193 23.6785 25.7485C23.5998 25.3892 23.4835 25.0841 23.3297 24.8333C23.1841 24.5964 23.0155 24.4207 22.8237 24.3064C22.6372 24.1953 22.423 24.1397 22.1812 24.1397V24.1409Z" fill="#0072C6"/>
<path fill-rule="evenodd" clip-rule="evenodd" d="M29.1177 38.6909V15.3042V15L28.819 15.0577L15.2043 17.6931L15 17.7326V17.9396V35.8365V36.04L15.2004 36.082L28.8151 38.9365L29.1177 39V38.6909ZM22.2117 22.6573C22.7015 22.6573 23.1459 22.758 23.5445 22.9597C23.9418 23.1608 24.2911 23.4609 24.5918 23.8602L24.5922 23.8598C24.8887 24.2529 25.1106 24.7067 25.258 25.2215C25.4033 25.7292 25.4759 26.2956 25.4759 26.9207H25.4749C25.4754 27.5625 25.4003 28.1441 25.25 28.6656C25.0975 29.1949 24.8679 29.6614 24.5615 30.0648C24.2497 30.4749 23.8892 30.7834 23.4801 30.9901C23.0687 31.1977 22.6123 31.3017 22.1107 31.3017V31.3008C21.619 31.3006 21.1727 31.2004 20.7712 30.9999C20.3702 30.7997 20.0157 30.5007 19.7075 30.1029C19.4046 29.711 19.1775 29.2609 19.0265 28.7527C18.8772 28.2503 18.8024 27.693 18.8024 27.0806C18.8024 26.4354 18.8778 25.8496 19.0285 25.3236C19.1808 24.7916 19.4109 24.3206 19.7187 23.9107C20.0311 23.4945 20.3956 23.1817 20.8122 22.9721C21.2306 22.7617 21.6972 22.6564 22.2117 22.6564V22.6573Z" fill="#0072C6"/>
<path d="M61.0269 34.2344C56.9644 34.2344 54.4253 31.4414 54.4253 26.959V26.9395C54.4253 22.4668 56.9741 19.6738 61.0269 19.6738C65.0894 19.6738 67.6284 22.4766 67.6284 26.9395V26.959C67.6284 31.4316 65.0991 34.2344 61.0269 34.2344ZM61.0269 32.3008C63.7319 32.3008 65.3921 30.2109 65.3921 26.959V26.9395C65.3921 23.668 63.7026 21.6074 61.0269 21.6074C58.3608 21.6074 56.6519 23.6582 56.6519 26.9395V26.959C56.6519 30.2402 58.3511 32.3008 61.0269 32.3008ZM72.9604 34.2051C70.7046 34.2051 69.4155 32.75 69.4155 30.3867V23.7266H71.5249V29.9766C71.5249 31.5293 72.2476 32.3887 73.7124 32.3887C75.1968 32.3887 76.1538 31.3242 76.1538 29.7227V23.7266H78.2729V34H76.1538V32.457H76.105C75.5679 33.4922 74.5229 34.2051 72.9604 34.2051ZM83.9663 34.2051C81.9351 34.2051 80.9585 33.3457 80.9585 31.2949V25.4062H79.4839V23.7266H80.9585V21.0508H83.1167V23.7266H85.0405V25.4062H83.1167V31.168C83.1167 32.2129 83.5854 32.5254 84.4741 32.5254C84.6987 32.5254 84.8843 32.5059 85.0405 32.4863V34.1172C84.7964 34.1562 84.396 34.2051 83.9663 34.2051ZM86.8667 34V19.9082H88.9761V34H86.8667ZM95.5581 34.2051C92.6089 34.2051 90.6851 32.1641 90.6851 28.8633V28.8438C90.6851 25.5625 92.6284 23.5312 95.5483 23.5312C98.478 23.5312 100.431 25.5527 100.431 28.8438V28.8633C100.431 32.1738 98.4976 34.2051 95.5581 34.2051ZM95.5679 32.4375C97.2183 32.4375 98.2729 31.1289 98.2729 28.8633V28.8438C98.2729 26.5977 97.1987 25.2988 95.5483 25.2988C93.9272 25.2988 92.8433 26.5977 92.8433 28.8438V28.8633C92.8433 31.1387 93.9175 32.4375 95.5679 32.4375ZM106.476 34.2051C103.527 34.2051 101.603 32.1641 101.603 28.8633V28.8438C101.603 25.5625 103.546 23.5312 106.466 23.5312C109.396 23.5312 111.349 25.5527 111.349 28.8438V28.8633C111.349 32.1738 109.416 34.2051 106.476 34.2051ZM106.486 32.4375C108.136 32.4375 109.191 31.1289 109.191 28.8633V28.8438C109.191 26.5977 108.117 25.2988 106.466 25.2988C104.845 25.2988 103.761 26.5977 103.761 28.8438V28.8633C103.761 31.1387 104.835 32.4375 106.486 32.4375ZM113.097 34V19.9082H115.207V28.1113H115.255L119.376 23.7266H121.857L117.638 28.1602L122.023 34H119.572L116.085 29.4297L115.207 30.2988V34H113.097Z" fill="black"/>
</svg>
